# xmcd
#
# Track frame offsets:
#	183
#	21090
#	37753
#	50923
#	79668
#	94540
#	108358
#	117800
#	152898
#	176493
#
# Disc length: 2721 seconds
#
# Revision: 1
# Processed by: cddbd v1.4PL0 Copyright (c) Steve Scherf et al.
# Submitted via: EasyCDDAExtractor 6.0.0.1
#
DISCID=700a9f0a
DTITLE=Van Morrison - Live In San Francisco
DYEAR=1970
DGENRE=Blues
TTITLE0=Moondance
TTITLE1=Glad Tidings
TTITLE2=Crazy Love
TTITLE3=Come Running
TTITLE4=The Way Young Lovers Do
TTITLE5=Everyone
TTITLE6=Brown Eyed Girl
TTITLE7=Medley: Stoned Me/These Dreams Of You
TTITLE8=Into The Mystic
TTITLE9=Cyprus Avenue
EXTD=
EXTT0=
EXTT1=
EXTT2=
EXTT3=
EXTT4=
EXTT5=
EXTT6=
EXTT7=
EXTT8=
EXTT9=
PLAYORDER=
